<svg xmlns="http://www.w3.org/2000/svg" width="79.14" height="81.329" viewBox="0 0 79.14 81.329">
  <g id="_3" data-name="3" transform="translate(-403.97 -43.661)">
    <g id="Group_354" data-name="Group 354">
      <path id="Path_243" data-name="Path 243" d="M447.792,67.618s21.24-14,13.871-22.052-16.626,12.013-16.626,12.013Z"/>
    </g>
    <g id="Group_355" data-name="Group 355">
      <path id="Path_244" data-name="Path 244" d="M427.31,124.04a5.327,5.327,0,0,0-4.5.95H403.97c6.77-26.41,23.41-33.23,23.41-33.23S427.99,104.53,427.31,124.04Z" fill="#6876aa"/>
    </g>
    <g id="Group_357" data-name="Group 357">
      <g id="Group_356" data-name="Group 356">
        <path id="Path_245" data-name="Path 245" d="M434.522,52.925s11.162-7.257,17.932,1.789c6.572,8.784.149,18.746.149,18.746L437.414,61.618Z"/>
      </g>
    </g>
    <g id="Group_359" data-name="Group 359">
      <g id="Group_358" data-name="Group 358">
        <path id="Path_246" data-name="Path 246" d="M472.45,124.99H411.18c.31-6.03,1.03-12.51,2.76-17.29,3.57-9.85,11.47-15.39,15.85-17.1,5.21-2.04,18.13-2.04,18.13-2.04s21.91,3.88,22.84,20.2C470.92,111.42,472.12,118.69,472.45,124.99Z" fill="#6876aa"/>
      </g>
    </g>
    <g id="Group_361" data-name="Group 361">
      <g id="Group_360" data-name="Group 360">
        <path id="Path_247" data-name="Path 247" d="M448.242,78.945l.476,10.438s-1.745,3.086-7.829,3.861c-4.532.577-6.177-.379-6.177-.379l.393-5.315.391-5.183,10.915-2.928Z" fill="#f48462"/>
      </g>
    </g>
    <g id="Group_363" data-name="Group 363">
      <g id="Group_362" data-name="Group 362">
        <path id="Path_248" data-name="Path 248" d="M446.411,79.439a3.426,3.426,0,0,1-.257,1.021c-2.1,5.32-8.432,6.735-11.049,7.09l.391-5.183Z"/>
      </g>
    </g>
    <g id="Group_365" data-name="Group 365">
      <g id="Group_364" data-name="Group 364">
        <path id="Path_249" data-name="Path 249" d="M432.083,58.681s-4.881,13.337-2.39,20.509,9.07,5.618,12.962,3.964a13.2,13.2,0,0,0,5.589-4.206,5.62,5.62,0,0,0,6.067-2.575c2.274-3.608.5-7.482-1.676-8.262s-4.607.907-4.607.907l1.747-3.9S440.282,46.446,432.083,58.681Z" fill="#f48462"/>
      </g>
    </g>
    <g id="Group_367" data-name="Group 367">
      <g id="Group_366" data-name="Group 366">
        <path id="Path_250" data-name="Path 250" d="M448.028,69.018s-5.5,1.521-9.82-4.416-4.142-8.514-4.142-8.514l-3.408,7.238s-1.18-4.937.4-7.9,3.466-2.5,3.466-2.5l12.525,2.2,3.939,9.636Z"/>
      </g>
    </g>
    <g id="Group_368" data-name="Group 368">
      <path id="Path_251" data-name="Path 251" d="M446.906,98.906c-2.875,0-5.461-3.076-6.371-4.292-1.227,1.124-4.611,4.042-6.893,3.947a1.976,1.976,0,0,1-1.459-.64c-1.065-1.171,1.054-4.106,2.014-5.315a.5.5,0,0,1,.559-.16c8.968,3.17,13.8-3.176,14-3.448a.5.5,0,0,1,.889.181c.057.239,1.384,5.883-.224,8.425a2.606,2.606,0,0,1-1.707,1.219A3.891,3.891,0,0,1,446.906,98.906Zm-5.445-4.733c1,1.29,3.56,4.19,6.046,3.671a1.618,1.618,0,0,0,1.067-.775c1.028-1.622.589-5.028.29-6.7A13.294,13.294,0,0,1,441.461,94.173Zm-6.7-.667c-1.257,1.65-2.137,3.418-1.842,3.742a1,1,0,0,0,.751.314c1.514.045,4.132-1.9,5.692-3.248A15.2,15.2,0,0,1,434.765,93.506Z" fill="#f7b369"/>
    </g>
    <g id="Group_370" data-name="Group 370">
      <g id="Group_369" data-name="Group 369">
        <path id="Path_252" data-name="Path 252" d="M483.11,124.66a6.113,6.113,0,0,1-2.02.33H463.62c1.16-10.59-1.14-30.27-1.14-30.27S473.83,99.21,483.11,124.66Z" fill="#6876aa"/>
      </g>
    </g>
    <g id="Group_371" data-name="Group 371">
      <path id="Path_253" data-name="Path 253" d="M433.057,75.235a.5.5,0,0,1-.475-.342c-.993-2.973,1.047-6.061,1.134-6.191a.5.5,0,0,1,.83.557c-.019.028-1.851,2.815-1.015,5.318a.5.5,0,0,1-.316.632A.489.489,0,0,1,433.057,75.235Z"/>
    </g>
    <g id="Group_372" data-name="Group 372">
      <path id="Path_254" data-name="Path 254" d="M448.86,75.235a.5.5,0,0,1-.371-.835l3.681-4.078a.5.5,0,1,1,.742.67l-3.681,4.078A.5.5,0,0,1,448.86,75.235Z"/>
    </g>
    <g id="Group_373" data-name="Group 373">
      <path id="Path_255" data-name="Path 255" d="M452.827,74.076c-.021,0-.043,0-.064,0l-2.616-.337a.5.5,0,1,1,.126-.992l2.617.337a.5.5,0,0,1-.063,1Z"/>
    </g>
    <g id="Group_374" data-name="Group 374">
      <path id="Path_256" data-name="Path 256" d="M430.657,63.826a.5.5,0,0,1-.1-.99l1.894-.379a.506.506,0,0,1,.588.392.5.5,0,0,1-.393.589l-1.894.378A.469.469,0,0,1,430.657,63.826Z"/>
    </g>
    <g id="Group_375" data-name="Group 375">
      <path id="Path_257" data-name="Path 257" d="M440.383,65.3a.5.5,0,0,1-.215-.048l-3.286-1.562a.5.5,0,0,1,.43-.9l3.286,1.562a.5.5,0,0,1-.215.951Z"/>
    </g>
    <g id="Group_376" data-name="Group 376">
      <path id="Path_258" data-name="Path 258" d="M431.228,69.634a.489.489,0,0,1-.135-.019.5.5,0,0,1-.347-.616l.634-2.267-.618-.718a.5.5,0,0,1,.758-.653l.793.922a.5.5,0,0,1,.1.461l-.706,2.525A.5.5,0,0,1,431.228,69.634Z"/>
    </g>
    <g id="Group_377" data-name="Group 377">
      <path id="Path_259" data-name="Path 259" d="M438.58,70.131a.489.489,0,0,1-.135-.019.5.5,0,0,1-.346-.616l.632-2.259-.909-1.009a.5.5,0,1,1,.742-.67l1.094,1.213a.5.5,0,0,1,.111.47l-.707,2.525A.5.5,0,0,1,438.58,70.131Z"/>
    </g>
    <g id="Group_378" data-name="Group 378">
      <path id="Path_260" data-name="Path 260" d="M434.7,78.66a3.724,3.724,0,0,1-1.072-.156.5.5,0,1,1,.285-.958c1.89.563,3.623-1.167,3.64-1.185a.5.5,0,0,1,.713.7A5.578,5.578,0,0,1,434.7,78.66Z"/>
    </g>
    <g id="Group_379" data-name="Group 379">
      <path id="Path_261" data-name="Path 261" d="M422.827,124.538a.5.5,0,0,1-.432-.248c-4.978-8.561-.049-17.125,0-17.21a.5.5,0,0,1,.861.507c-.047.08-4.677,8.155,0,16.2a.5.5,0,0,1-.433.751Z" fill="#f7b369"/>
    </g>
  </g>
</svg>
