<svg width="50" height="50" viewBox="0 0 50 50" fill="none" xmlns="http://www.w3.org/2000/svg">
<g clip-path="url(#clip0)">
<path d="M49.0079 25.5741C49.0079 23.8746 48.8701 22.166 48.5761 20.4941H24.9954V30.1212H38.499C37.9386 33.2261 36.1381 35.9727 33.5017 37.7181V43.9647H41.5579C46.2888 39.6104 49.0079 33.1802 49.0079 25.5741Z" fill="#4285F4"/>
<path d="M24.9954 50C31.738 50 37.4242 47.7861 41.5672 43.9647L33.5109 37.7181C31.2695 39.243 28.3759 40.1065 25.0046 40.1065C18.4825 40.1065 12.9524 35.7064 10.9682 29.7905H2.65479V36.23C6.89877 44.672 15.5429 50 24.9954 50V50Z" fill="#34A853"/>
<path d="M10.959 29.7907C9.91177 26.6858 9.91177 23.3237 10.959 20.2188V13.7793H2.65474C-0.891098 20.8434 -0.891098 29.166 2.65474 36.2301L10.959 29.7907V29.7907Z" fill="#FBBC04"/>
<path d="M24.9954 9.89366C28.5596 9.83855 32.0044 11.1797 34.5857 13.6416L41.7233 6.50399C37.2037 2.26 31.2052 -0.073269 24.9954 0.000219877C15.5429 0.000219877 6.89877 5.32816 2.65479 13.7794L10.959 20.2189C12.934 14.2938 18.4733 9.89366 24.9954 9.89366V9.89366Z" fill="#EA4335"/>
</g>
<defs>
<clipPath id="clip0">
<rect width="49.0079" height="50" fill="white"/>
</clipPath>
</defs>
</svg>
